<svg width="390" height="647" viewBox="0 0 390 647" fill="none" xmlns="http://www.w3.org/2000/svg">
<path d="M200.021 0.854492C246.017 -3.78167 288.2 16.4484 321.79 54.2939C331.457 43.8594 342.331 35.0338 354.38 28.0771C405.455 -1.41088 467.49 8.55005 525.254 48.3105C533.396 40.4514 542.31 33.6618 551.983 28.0771C649.143 -28.0175 785.967 58.6393 857.589 221.631C929.211 384.623 908.51 562.228 811.351 618.323C760.275 647.812 698.239 637.85 640.476 598.089C632.334 605.948 623.42 612.739 613.747 618.323C568.035 644.715 513.542 639.506 461.19 609.616C413.294 649.056 342.804 648.223 271.067 613.787C247.273 631.658 221.295 642.809 194.143 645.546C151.281 649.866 111.729 632.593 79.3574 599.594C24.1085 624.495 -30.7807 629.617 -75.3643 609.443C-88.4073 603.541 -99.9369 595.758 -109.94 586.354C-156.963 609.202 -204.387 615.866 -245.607 601.799C-258.004 597.568 -269.291 591.649 -279.438 584.238C-335.243 619.035 -393.495 631.911 -442.852 615.067C-549.029 578.833 -573.832 418.786 -498.25 257.592C-422.668 96.3978 -275.324 -4.90248 -169.146 31.332C-156.75 35.5624 -145.464 41.4813 -135.316 48.8916C-79.5118 14.0952 -21.2592 1.21978 28.0977 18.0635C53.4089 26.7013 74.0954 42.3756 89.9004 63.4238C121.782 27.6464 159.602 4.92871 200.021 0.854492Z" fill="url(#paint0_radial_270_696)"/>
<defs>
<radialGradient id="paint0_radial_270_696" cx="0" cy="0" r="1" gradientUnits="userSpaceOnUse" gradientTransform="translate(187.833 323.2) rotate(90) scale(299.215 729.836)">
<stop stop-color="#FFF9EE"/>
<stop offset="1" stop-color="#E8F5FF"/>
</radialGradient>
</defs>
</svg>
