<svg width="1305" height="585" viewBox="0 0 1305 585" fill="none" xmlns="http://www.w3.org/2000/svg">
<path d="M671.021 1.08301C702.152 -2.05486 731.353 7.40324 756.809 26.709C766.759 31.4917 776.665 37.2736 786.436 43.999C793.798 36.8917 801.86 30.7516 810.607 25.7012C856.795 -0.965489 912.895 8.0426 965.132 43.999C972.495 36.8916 980.557 30.7517 989.305 25.7012C1077.17 -25.026 1200.9 53.339 1265.67 200.734C1330.44 348.13 1311.72 508.739 1223.85 559.467C1177.67 586.134 1121.56 577.125 1069.33 541.168C1061.96 548.275 1053.9 554.416 1045.16 559.467C998.968 586.134 942.868 577.125 890.631 541.168C883.268 548.275 875.207 554.416 866.459 559.467C827.102 582.189 780.549 579.009 735.321 555.326C713.79 571.51 690.279 581.608 665.705 584.085C628.01 587.885 593.146 573.215 564.332 544.957C523.485 563.669 482.522 568.738 446.73 556.523C428.274 550.225 412.537 539.789 399.641 526.005C354.228 550.284 307.919 558.135 268.033 544.523C256.823 540.698 246.617 535.345 237.44 528.644C186.976 560.11 134.297 571.755 89.6631 556.523C-6.35397 523.756 -28.7829 379.022 39.5664 233.253C107.916 87.4836 241.161 -4.12287 337.179 28.6445C348.388 32.47 358.594 37.8225 367.771 44.5234C418.235 13.0564 470.915 1.41341 515.549 16.6455C534.004 22.9437 549.74 33.3788 562.636 47.1621C574.991 40.5564 587.414 35.1678 599.755 31.0957C621.733 14.1795 645.819 3.62336 671.021 1.08301Z" fill="url(#paint0_radial_232_240)"/>
<defs>
<radialGradient id="paint0_radial_232_240" cx="0" cy="0" r="1" gradientUnits="userSpaceOnUse" gradientTransform="translate(660 292.584) rotate(90) scale(270.584 660)">
<stop stop-color="#FFF9EE"/>
<stop offset="1" stop-color="#E8F5FF"/>
</radialGradient>
</defs>
</svg>
